<svg width="21" height="26" viewBox="0 0 21 26" fill="none" xmlns="http://www.w3.org/2000/svg">
<g clip-path="url(#clip0_1_64)">
<path d="M17.4239 6.93645C17.5511 6.23303 17.5128 5.49999 17.3136 4.82199C17.1143 4.144 16.7622 3.54871 16.2979 3.10487C15.8336 2.66104 15.276 2.38676 14.6896 2.31373C14.1031 2.24069 13.5117 2.37187 12.9837 2.69212C12.7867 1.91243 12.3906 1.23035 11.8533 0.745876C11.316 0.261398 10.6658 0 9.99809 0C9.33036 0 8.6802 0.261398 8.1429 0.745876C7.60561 1.23035 7.20943 1.91243 7.01246 2.69212C6.48443 2.37187 5.89304 2.24069 5.30659 2.31373C4.72014 2.38676 4.16257 2.66104 3.69825 3.10487C3.23394 3.54871 2.88183 4.144 2.68259 4.82199C2.48335 5.49999 2.44512 6.23303 2.5723 6.93645C1.80395 7.1051 1.1151 7.61911 0.64131 8.3773C0.167524 9.1355 -0.0568699 10.083 0.0122951 11.0332C0.0814601 11.9834 0.439174 12.8676 1.01503 13.5117C1.59088 14.1558 2.34316 14.5132 3.1238 14.5134H3.18629C3.35204 15.5059 3.83361 16.3773 4.52508 16.9359C5.21655 17.4944 6.06127 17.6945 6.87341 17.4919C7.68555 17.2894 8.39859 16.7008 8.85566 15.8558C9.31273 15.0108 9.4764 13.9785 9.31066 12.986H10.0606C9.90458 13.9807 10.0783 15.0103 10.5435 15.8484C11.0087 16.6865 11.7273 17.2645 12.5412 17.4552C13.3551 17.6458 14.1976 17.4335 14.8835 16.865C15.5693 16.2965 16.0422 15.4183 16.1982 14.4237C16.6049 14.5363 17.026 14.5484 17.4365 14.459C17.8471 14.3697 18.2389 14.1809 18.5888 13.9036C18.9387 13.6264 19.2396 13.2663 19.4739 12.8447C19.7082 12.4231 19.871 11.9485 19.9528 11.4487C20.0346 10.949 20.0338 10.4343 19.9503 9.93504C19.8668 9.43573 19.7023 8.9619 19.4667 8.54148C19.231 8.12105 18.9288 7.76252 18.578 7.48704C18.2271 7.21155 17.8347 7.02467 17.4239 6.93741V6.93645Z" fill="#2A9D8F"/>
<path d="M7.96118 25.5249H12.0527L11.4682 10.4973H8.54568L7.96118 25.5249Z" fill="#2A9D8F"/>
</g>
<defs>
<clipPath id="clip0_1_64">
<rect width="20.0135" height="25.5249" fill="white"/>
</clipPath>
</defs>
</svg>
