<svg width="44" height="55" viewBox="0 0 44 55" fill="none" xmlns="http://www.w3.org/2000/svg">
<g clip-path="url(#clip0_1_13)">
<path d="M37.8402 15.0819C38.1112 13.5833 38.0297 12.0216 37.6052 10.5771C37.1807 9.13272 36.4305 7.86449 35.4413 6.91893C34.452 5.97336 33.264 5.38904 32.0145 5.23344C30.765 5.07784 29.505 5.35732 28.38 6.03959C27.9603 4.37851 27.1162 2.92539 25.9714 1.89324C24.8267 0.86109 23.4414 0.304199 22.0187 0.304199C20.5961 0.304199 19.2108 0.86109 18.0661 1.89324C16.9213 2.92539 16.0772 4.37851 15.6575 6.03959C14.5325 5.35732 13.2725 5.07784 12.023 5.23344C10.7735 5.38904 9.5855 5.97336 8.59622 6.91893C7.60695 7.86449 6.85674 9.13272 6.43224 10.5771C6.00774 12.0216 5.92628 13.5833 6.19724 15.0819C4.5602 15.4412 3.09251 16.5362 2.08306 18.1515C1.0736 19.7668 0.595507 21.7853 0.742871 23.8097C0.890235 25.8341 1.65239 27.7178 2.87931 29.09C4.10623 30.4622 5.70905 31.2236 7.37229 31.2241H7.50544C7.85857 33.3386 8.88463 35.195 10.3579 36.385C11.8311 37.575 13.6309 38.0011 15.3613 37.5696C17.0916 37.1381 18.6108 35.8843 19.5847 34.084C20.5585 32.2837 20.9072 30.0845 20.5541 27.97H22.1519C21.8195 30.0891 22.1896 32.2826 23.1808 34.0682C24.1719 35.8538 25.703 37.0851 27.4371 37.4913C29.1712 37.8974 30.9663 37.4452 32.4276 36.234C33.8888 35.0229 34.8965 33.152 35.2288 31.0329C36.0954 31.2729 36.9924 31.2985 37.8672 31.1082C38.7419 30.9179 39.5767 30.5156 40.3222 29.9249C41.0677 29.3343 41.7089 28.5672 42.208 27.669C42.7072 26.7708 43.0541 25.7596 43.2284 24.695C43.4027 23.6304 43.4009 22.5339 43.223 21.4701C43.0451 20.4064 42.6948 19.397 42.1926 18.5013C41.6905 17.6056 41.0467 16.8418 40.2992 16.2548C39.5517 15.6679 38.7156 15.2698 37.8402 15.0839V15.0819Z" fill="white"/>
<path d="M17.6789 54.6833H26.3956L25.1503 22.668H18.9241L17.6789 54.6833Z" fill="white"/>
</g>
<defs>
<clipPath id="clip0_1_13">
<rect width="42.6411" height="54.3791" fill="white" transform="translate(0.716675 0.304199)"/>
</clipPath>
</defs>
</svg>
